Format : MPEG-PS
File size : 52.1 MiB
Duration : 5mn 51s
Overall bit rate : 1 243 Kbps

Video
ID : 224 (0xE0)
Format : MPEG Video
Format version : Version 1
Format settings, BVOP : Yes
Format settings, Matrix : Default
Duration : 5mn 51s
Bit rate : 1 186 Kbps
Maximum bit rate : 1 196 Kbps
Width : 320 pixels
Height : 240 pixels
Display aspect ratio : 4:3
Frame rate : 29.970 fps
Color space : YUV
Bit depth : 8 bits
Scan type : Progressive
Compression mode : Lossy
Bits/(Pixel*Frame) : 0.515
Stream size : 49.7 MiB (95%)

Audio
ID : 192 (0xC0)
Format : MPEG Audio
Format version : Version 1
Format profile : Layer 2
Duration : 5mn 51s
Bit rate mode : Constant
Bit rate : 32.0 Kbps
Channel(s) : 1 channel
Sampling rate : 44.1 KHz
Compression mode : Lossy
Stream size : 1.34 MiB (3%)
